<?xml version="1.0"?>
<svg xmlns="http://www.w3.org/2000/svg" id="Layer_1" enable-background="new 0 0 512 512" height="512px" viewBox="0 0 512 512" width="512px"><g><g><g><g clip-rule="evenodd" fill="#fff1ee" fill-rule="evenodd"><path d="m169.135 204.229v-52.841c0-19.417-15.635-35.303-34.745-35.303s-34.746 15.887-34.746 35.303v191.749c0 87.737 70.003 158.863 156.356 158.863s156.356-71.126 156.356-158.864v-64.881c0-19.417-15.636-35.303-34.746-35.303h-69.491-50.692c-10.34 0-18.8 8.595-18.8 19.101v16.759c0 19.11-15.636 34.745-34.746 34.745s-34.746-15.635-34.746-34.745z" data-original="#FFF1EE"/><path d="m203.881 169.483c-19.11 0-34.746 15.635-34.746 34.745v.557 74.027c0 19.11 15.636 34.745 34.746 34.745 19.111 0 34.746-15.635 34.746-34.745v-16.759-57.267-.558c0-19.109-15.635-34.745-34.746-34.745z" data-original="#FFF1EE"/><path d="m238.627 182.841v21.388 57.825c0-10.506 8.459-19.101 18.8-19.101h50.692v-60.111-.146c-.078-19.35-15.684-35.157-34.746-35.157-19.11-.001-34.746 15.885-34.746 35.302z" data-original="#FFF1EE"/><path d="m308.119 182.841v60.111h69.491v-197.649c0-19.416-15.635-35.303-34.745-35.303s-34.746 15.888-34.746 35.303v137.392z" data-original="#FFF1EE"/></g><g><path d="m180.235 424.686c-.304 0-.609-.014-.917-.042-5.5-.5-9.554-5.364-9.054-10.864 1.833-20.163 16.413-57.39 30.815-72.092 3.866-3.946 10.197-4.011 14.142-.146s4.01 10.196.146 14.141c-10.167 10.379-23.583 42.292-25.184 59.908-.473 5.192-4.834 9.095-9.948 9.095z" fill="#ffdcd5" data-original="#FFDCD5"/></g><g clip-rule="evenodd" fill="#ffdcd5" fill-rule="evenodd"><path d="m342.865 106.547c8.468 0 15.375-2.696 15.375-6 0-3.305-6.907-6-15.375-6-8.469 0-15.375 2.695-15.375 6 0 3.304 6.906 6 15.375 6z" data-original="#FFDCD5"/><ellipse cx="342.865" cy="180.547" rx="15.375" ry="6" data-original="#FFDCD5"/><path d="m134.39 206.547c8.468 0 15.375-2.696 15.375-6 0-3.305-6.907-6-15.375-6-8.469 0-15.375 2.695-15.375 6 0 3.304 6.906 6 15.375 6z" data-original="#FFDCD5"/><path d="m134.39 276.546c8.468 0 15.375-2.695 15.375-6s-6.907-6-15.375-6c-8.469 0-15.375 2.695-15.375 6s6.906 6 15.375 6z" data-original="#FFDCD5"/></g></g><path d="m387.61 234.092v-188.789c0-24.98-20.072-45.303-44.745-45.303s-44.746 20.323-44.746 45.303v99.817c-7.093-4.785-15.601-7.582-24.746-7.582-19.758 0-36.555 13.038-42.467 31.058-7.514-5.713-16.878-9.113-27.025-9.113-9.144 0-17.653 2.762-24.746 7.489v-15.584c0-24.98-20.073-45.303-44.746-45.303s-44.746 20.323-44.746 45.303v191.749c.001 93.111 74.628 168.863 166.357 168.863s166.356-75.752 166.356-168.864v-64.881c0-21.501-14.871-39.552-34.746-44.163zm-69.491-188.789c0-13.952 11.101-25.303 24.746-25.303s24.746 11.351 24.746 25.303v187.649h-49.5c.006-.141.009-.282.009-.424v-187.225zm-69.492 137.538c0-13.952 11.101-25.303 24.746-25.303s24.746 11.351 24.746 25.303v49.687c0 .142.003.284.009.424h-40.701c-3.068 0-6.024.492-8.8 1.395v-29.56-.558zm-44.746-3.358c13.645 0 24.746 11.101 24.746 24.746v.558 74.026c0 13.645-11.101 24.745-24.746 24.745s-24.746-11.101-24.746-24.745v-74.027-.557c0-13.646 11.101-24.746 24.746-24.746zm198.475 163.653c0 82.084-65.655 148.864-146.356 148.864s-146.356-66.78-146.356-148.864v-191.749c0-13.952 11.101-25.303 24.746-25.303s24.746 11.351 24.746 25.303v52.841.557 74.027c0 24.672 20.073 44.745 44.747 44.745 16.507 0 30.945-8.992 38.7-22.329 8.181 10.006 19.414 17.361 32.248 20.559-27.859 19.138-46.204 51.5-46.204 88.129 0 5.523 4.477 10 10 10s10-4.477 10-10c0-47.618 38.058-86.359 84.837-86.359 5.523 0 10-4.477 10-10s-4.477-10-10-10h-44.146c-22.438 0-40.691-18.619-40.691-41.505 0-5.018 3.948-9.101 8.8-9.101h120.183c13.645 0 24.746 11.351 24.746 25.303z" fill="#ff9c9b" data-original="#FF9C9B" class="active-path" style="fill:#FF9C9B"/></g></g> </svg>
